<svg xmlns="http://www.w3.org/2000/svg" viewBox="0 0 1600 900" preserveAspectRatio="none" role="img" aria-label="Background">
  <defs>
    <radialGradient id="g1" cx="25%" cy="25%" r="75%">
      <stop offset="0" stop-color="#667eea" stop-opacity="0.55"/>
      <stop offset="1" stop-color="#0a0a0f" stop-opacity="1"/>
    </radialGradient>
    <radialGradient id="g2" cx="80%" cy="65%" r="70%">
      <stop offset="0" stop-color="#764ba2" stop-opacity="0.45"/>
      <stop offset="1" stop-color="#0a0a0f" stop-opacity="1"/>
    </radialGradient>
    <linearGradient id="grid" x1="0" y1="0" x2="0" y2="1">
      <stop offset="0" stop-color="#ffffff" stop-opacity="0.08"/>
      <stop offset="1" stop-color="#ffffff" stop-opacity="0.02"/>
    </linearGradient>
  </defs>

  <rect width="1600" height="900" fill="#0a0a0f"/>
  <rect width="1600" height="900" fill="url(#g1)"/>
  <rect width="1600" height="900" fill="url(#g2)" opacity="0.95"/>

  <!-- subtle grid -->
  <g stroke="url(#grid)" stroke-width="1">
    <path d="M0 120 H1600M0 240 H1600M0 360 H1600M0 480 H1600M0 600 H1600M0 720 H1600M0 840 H1600" />
    <path d="M160 0 V900M320 0 V900M480 0 V900M640 0 V900M800 0 V900M960 0 V900M1120 0 V900M1280 0 V900M1440 0 V900" />
  </g>

  <!-- glow orbs -->
  <circle cx="240" cy="220" r="140" fill="#4facfe" opacity="0.14"/>
  <circle cx="1320" cy="640" r="180" fill="#f093fb" opacity="0.10"/>
  <circle cx="980" cy="260" r="120" fill="#00f2fe" opacity="0.08"/>
</svg>

